<?xml version="1.0" encoding="UTF-8" standalone="no"?>
<svg
   xmlns:dc="http://purl.org/dc/elements/1.1/"
   xmlns:cc="http://creativecommons.org/ns#"
   xmlns:rdf="http://www.w3.org/1999/02/22-rdf-syntax-ns#"
   xmlns:svg="http://www.w3.org/2000/svg"
   xmlns="http://www.w3.org/2000/svg"
   viewBox="0 0 242.12 378.42667"
   height="378.42667"
   width="242.12"
   xml:space="preserve"
   id="svg2"
   version="1.1"><metadata
     id="metadata8"><rdf:RDF><cc:Work
         rdf:about=""><dc:format>image/svg+xml</dc:format><dc:type
           rdf:resource="http://purl.org/dc/dcmitype/StillImage" /></cc:Work></rdf:RDF></metadata><defs
     id="defs6" /><g
     transform="matrix(1.3333333,0,0,-1.3333333,0,378.42667)"
     id="g10"><g
       transform="scale(0.1)"
       id="g12"><path
         id="path14"
         style="fill:#231f20;fill-opacity:1;fill-rule:nonzero;stroke:none"
         d="m 1213.12,1317.4 h 206 V 399.289 H 760.43 c -264.504,0 -363.684,99.191 -363.684,363.68 V 1317.4 H 602.742 V 757.891 c 0,-117 45.781,-165.321 152.598,-165.321 h 457.78 z M 198.367,2639.88 H 1617.5 V 198.371 H 198.367 Z M 0,0.0117188 H 1815.87 V 2838.25 H 0 Z M 1111.4,2037.13 H 602.742 v 208.55 H 1111.4 c 76.28,0 111.89,-40.7 111.89,-101.73 0,-61.04 -30.52,-106.82 -111.89,-106.82 z m 317.9,129.71 c 0,152.59 -73.75,272.12 -289.94,272.12 H 396.746 v -918.1 h 205.996 v 322.99 h 475.588 c 106.82,0 134.79,-30.52 134.79,-137.34 v -185.65 h 206 v 218.72 c 0,109.09 -38.7,173.09 -124.66,194.86 89.43,30.23 134.84,116.7 134.84,232.4" /></g></g></svg>